<?xml version="1.0" encoding="utf-8"?>
<!-- Generator: Adobe Illustrator 21.0.0, SVG Export Plug-In . SVG Version: 6.00 Build 0)  -->
<svg version="1.1" id="Layer_1" xmlns="http://www.w3.org/2000/svg" xmlns:xlink="http://www.w3.org/1999/xlink" x="0px" y="0px"
	 viewBox="0 0 16 16" style="enable-background:new 0 0 16 16;" xml:space="preserve">
<style type="text/css">
	.st0{fill:#A5223E;}
</style>
<title>bx-coffee</title>
<path class="st0" d="M2,12.7C2,13.4,2.6,14,3.3,14H10c0.7,0,1.3-0.6,1.3-1.3V12h2c0.4,0,0.7-0.3,0.7-0.7l0,0V6.7
	C14,6.3,13.7,6,13.3,6l0,0h-2V5.3c0-0.4-0.3-0.7-0.7-0.7l0,0h-8C2.3,4.7,2,5,2,5.3l0,0V12.7L2,12.7z M12.7,7.3v3.3h-1.3V7.3H12.7z
	 M3.3,6H10v6.7H3.3V6z M3.3,1.3h1.3v2H3.3V1.3z M6,1.3h1.3v2H6V1.3z M8.7,1.3H10v2H8.7V1.3z"/>
<path class="st0" d="M14.1,3.8c-0.5,0-0.9,0.4-0.9,0.9s0.4,0.9,0.9,0.9S15,5.2,15,4.7l0,0V2l0,0c0-0.1-0.1-0.2-0.1-0.2l0,0l-2.2-1.2
	h-0.1c-0.1,0-0.2,0.1-0.2,0.2v2.1c-0.1-0.1-0.2-0.1-0.4-0.1l0,0c-0.5,0-0.9,0.4-0.9,0.9s0.4,0.9,0.9,0.9s0.9-0.4,0.9-0.9l0,0V1.2
	l1.7,1v1.7C14.3,3.8,14.2,3.8,14.1,3.8L14.1,3.8L14.1,3.8z M11.8,4c-0.2,0-0.4-0.2-0.4-0.4s0.2-0.4,0.4-0.4s0.4,0.2,0.4,0.4l0,0l0,0
	C12.2,3.8,12,4,11.8,4L11.8,4L11.8,4z M14.1,5c-0.2,0-0.4-0.2-0.4-0.4s0.2-0.4,0.4-0.4s0.4,0.2,0.4,0.4l0,0l0,0l0,0
	C14.4,4.8,14.3,5,14.1,5z"/>
</svg>
