<?xml version="1.0" encoding="utf-8"?>
<!-- Generator: Adobe Illustrator 21.0.0, SVG Export Plug-In . SVG Version: 6.00 Build 0)  -->
<svg version="1.1" id="Layer_1" xmlns="http://www.w3.org/2000/svg" xmlns:xlink="http://www.w3.org/1999/xlink" x="0px" y="0px"
	 viewBox="0 0 16 16" style="enable-background:new 0 0 16 16;" xml:space="preserve">
<style type="text/css">
	.st0{fill:#A5223E;}
</style>
<title>bx-map-pin</title>
<path class="st0" d="M3.3,7.3C3,7.3,2.8,7.5,2.7,7.8l-1.3,5.3c0,0,0,0.1,0,0.2C1.3,13.7,1.6,14,2,14l0,0h12l0,0
	c0.4,0,0.7-0.3,0.7-0.7c0-0.1,0-0.1,0-0.2l0,0l-1.3-5.3c-0.1-0.3-0.3-0.5-0.6-0.5h-4V5.9c1-0.3,1.7-1.2,1.7-2.2c0-1.3-1-2.3-2.3-2.3
	s-2.3,1-2.3,2.3c0,1.1,0.7,1.9,1.7,2.2v1.4H3.3L3.3,7.3z M7,3.7c0-0.6,0.4-1,1-1s1,0.4,1,1s-0.4,1-1,1S7,4.2,7,3.7z M12.1,8.7l1,4
	H2.9l1-4h3.5V10L8,11.3L8.7,10V8.7H12.1z"/>
</svg>
