<?xml version="1.0" encoding="utf-8"?>
<!-- Generator: Adobe Illustrator 21.0.0, SVG Export Plug-In . SVG Version: 6.00 Build 0)  -->
<svg version="1.1" xmlns="http://www.w3.org/2000/svg" xmlns:xlink="http://www.w3.org/1999/xlink" x="0px" y="0px"
	 viewBox="0 0 614 612" style="enable-background:new 0 0 614 612;" xml:space="preserve">
<style type="text/css">
	.st0{display:none;}
	.st1{fill:#F9F9FA;}
	.st2{fill:#201D50;}
	.st3{fill:none;stroke:#201D50;stroke-width:10;stroke-linecap:round;stroke-linejoin:round;stroke-miterlimit:10;}
	.st4{fill:none;stroke:#F9F9FA;stroke-width:5;stroke-miterlimit:10;}
	.st5{fill:#C92128;}
	.st6{stroke:#000000;stroke-width:3;stroke-miterlimit:10;}
	.st7{font-family:'TimesNewRomanPS-BoldMT';}
	.st8{font-size:107.0209px;}
	.st9{stroke:#FFFFFF;stroke-width:0.5518;}
</style>
<g id="Layer_9">
</g>
<g id="Layer_1" class="st0">
</g>
<g id="Layer_3">
</g>
<g id="Layer_4">
</g>
<g id="Layer_2">
</g>
<g id="Layer_5">
</g>
<g id="Layer_6">
</g>
<g id="Layer_7">
</g>
<g id="Layer_8">
	<g>
		<path id="XMLID_9_" class="st1" d="M307.8,474.7c0.6,32.3,10.3,123.1,10.3,123.1s29-36.4,86.7-56.4c19-6.6,46.2-15.4,71.2-28.3
			c8.5-4.4,38.9-28.8,50.5-82c12.5-57.2-58-112-58-112v-15l11.2-1.8c32.3-0.6,123.1-10.3,123.1-10.3s-36.4-29-56.4-86.7
			c-6.6-19-15.4-46.2-28.3-71.2c-4.4-8.5-28.8-38.9-82-50.5c-57.2-12.5-112,58-112,58h-15l-1.8-8.2c-0.6-32.3-10.3-123.1-10.3-123.1
			s-29,36.4-86.7,56.4C191.2,73.3,164,82.1,139,95c-8.5,4.4-38.9,28.8-50.5,82c-12.5,57.2,58,112,58,112v15l-10.5,1.8
			c-32.3,0.6-123.1,10.3-123.1,10.3s36.4,29,56.4,86.7c6.6,19,15.4,46.2,28.3,71.2c4.4,8.5,28.8,38.9,82,50.5
			c57.2,12.5,112-58,112-58h15L307.8,474.7z"/>
		<path id="XMLID_12_" class="st2" d="M447.1,269.7c0,0-35.5,0.5-47.2-1.7c-17.1-3.2-40.8-21-46.1-59c-5.3-38-3.4-53.7-3.4-53.7
			l-41.3,25.3L267,155.3c0,0,2,15.7-3.4,53.7c-5.3,38-29,55.7-46.1,59c-11.7,2.2-47.2,1.7-47.2,1.7l24,33l-24,33
			c0,0,35.5-0.5,47.2,1.7c17.1,3.2,40.8,21,46.1,59c5.3,38,3.4,53.7,3.4,53.7l42.2-25.3l41.3,25.3c0,0-2-15.7,3.4-53.7
			c5.3-38,29-55.7,46.1-59c11.7-2.2,47.2-1.7,47.2-1.7l-24-33L447.1,269.7z"/>
		<path id="XMLID_2_" class="st3" d="M146.5,304v-15c0,0-70.5-54.8-58-112c11.6-53.3,42-77.6,50.5-82c25-12.9,52.2-21.7,71.2-28.3
			c57.7-20,86.7-56.4,86.7-56.4s9.7,90.8,10.3,123.1C308.1,182,310,304,310,304H146.5z"/>
		<path id="XMLID_3_" class="st3" d="M468.5,304v15c0,0,70.5,54.8,58,112c-11.6,53.3-42,77.6-50.5,82c-25,12.9-52.2,21.7-71.2,28.3
			c-57.7,20-86.7,56.4-86.7,56.4s-9.7-90.8-10.3-123.1C306.9,426,305,304,305,304H468.5z"/>
		<path id="XMLID_6_" class="st3" d="M306.6,466.5h-15c0,0-54.8,70.5-112,58c-53.2-11.6-77.6-42-82-50.5
			c-12.9-25-21.7-52.2-28.3-71.2c-20-57.7-56.4-86.7-56.4-86.7s90.8-9.7,123.1-10.3c48.6-0.9,170.7-2.8,170.7-2.8V466.5z"/>
		<path id="XMLID_8_" class="st3" d="M309,141.5h15c0,0,54.8-70.5,112-58c53.3,11.6,77.6,42,82,50.5c12.9,25,21.7,52.2,28.3,71.2
			c20,57.7,56.4,86.7,56.4,86.7s-90.8,9.7-123.1,10.3C431,303.1,309,305,309,305V141.5z"/>
		<polyline id="XMLID_10_" class="st4" points="306.7,249.4 313.2,229.2 303.3,229.2 311.9,207.6 		"/>
		<polyline id="XMLID_7_" class="st4" points="359.6,302.5 379.9,309 379.9,299.2 401.5,307.8 		"/>
		<polyline id="XMLID_13_" class="st4" points="252.3,307 232,300.5 232,310.4 210.4,301.8 		"/>
		<circle id="XMLID_11_" class="st1" cx="306.6" cy="302.3" r="47.7"/>
		<circle id="XMLID_14_" class="st5" cx="183.5" cy="178" r="66"/>
		<circle id="XMLID_16_" class="st5" cx="425.6" cy="170" r="66"/>
		<circle id="XMLID_17_" class="st5" cx="439" cy="420.7" r="66"/>
		<circle id="XMLID_18_" class="st5" cx="193" cy="429.3" r="66"/>
		<g id="XMLID_15_">
			<text transform="matrix(1 0 0 1 389.0176 205.898)" class="st6 st7 st8">E</text>
		</g>
		<text id="XMLID_20_" transform="matrix(1 0 0 1 139.0176 211.898)" class="st6 st7 st8">G</text>
		<g id="XMLID_21_">
			<text transform="matrix(1 0 0 1 153.5176 458.6476)" class="st6 st7 st8">A</text>
		</g>
		<g id="XMLID_22_">
			<text transform="matrix(1 0 0 1 389.0177 452.9814)" class="st6 st7 st8">M</text>
		</g>
		<g id="XMLID_23_">
			<path id="XMLID_49_" d="M300.6,311.7c-0.9-12.1-9-19.9-9-29.4c0-5.1,2.8-11.2,8.5-15.3c0.8-0.6,4.5-3.4,6.7-5.8v11.4
				c-0.8,11.4-1.2,27.1-1.1,38.9"/>
			<path id="XMLID_48_" d="M299,320.7c-2.1-0.2-4.1-0.5-5.8-0.8l0,0c-0.9,5.4-5.5,7.7-10,5.5c0.3,3.7,3.3,7,7.1,7
				C295.5,332.4,298.6,324.3,299,320.7L299,320.7"/>
			<path id="XMLID_47_" d="M305.7,321c-1.8,0-3.5-0.1-5.2-0.2l0,0c-0.5,3.5-1.9,7.8-4.8,11.7c2,4.3,6.5,8.5,11,10.4l0-8.6
				C305.8,330.7,305.9,324.1,305.7,321L305.7,321"/>
			<path id="XMLID_46_" d="M312.9,320.8c-1.7,0.1-3.4,0.2-5.2,0.2l0,0c-0.2,3.1-0.1,9.7-1,13.3l0,8.6c4.5-2,9-6.1,11-10.4
				C314.8,328.5,313.4,324.3,312.9,320.8L312.9,320.8"/>
			<path id="XMLID_45_" d="M320.5,319.8c-1.7,0.4-3.7,0.6-5.9,0.8l0,0c0.4,3.7,3.5,11.6,8.7,11.6c3.8,0,6.8-3.4,7.1-7
				C325.9,327.4,321.3,325.2,320.5,319.8L320.5,319.8"/>
			<path id="XMLID_44_" d="M313,311.6C313,311.6,313,311.6,313,311.6"/>
			<path id="XMLID_43_" d="M313,311.6c-1.6-0.1-3.4-0.2-5.2-0.2l0.1,0.1c0.2-11.7-0.3-27.6-1.1-39v-11.4c2.2,2.4,5.9,5.2,6.7,5.8
				c5.7,4.3,8.4,10.2,8.5,15.3C322,291.8,314,300.2,313,311.6"/>
			<path id="XMLID_42_" d="M305.8,311.4C305.8,311.4,305.8,311.4,305.8,311.4"/>
			<path id="XMLID_41_" d="M305.7,311.4c-0.2,0-0.4,0-0.6,0"/>
			<path id="XMLID_37_" d="M305.2,311.4c-1.6,0-3.1,0.1-4.6,0.2"/>
			<line id="XMLID_36_" x1="300.6" y1="311.6" x2="300.6" y2="311.6"/>
			<path id="XMLID_30_" class="st9" d="M306.8,313.1c-9.3,0-16.8,1.4-16.8,3.1c0,1.7,7.5,3.1,16.8,3.1c9.3,0,16.8-1.4,16.8-3.1
				C323.6,314.5,316.1,313.1,306.8,313.1z M306.9,317.6c-8.2,0-14.8-0.9-14.8-1.4c0-0.6,6.6-1.5,14.8-1.5c8.2,0,14.8,0.9,14.8,1.5
				C321.6,316.8,315,317.6,306.9,317.6z"/>
			<path id="XMLID_27_" d="M279.4,286.7c-8.8,0-15,8.4-13.1,16.8c1.2,5.6,6.3,10.5,12.4,9.7c-1-3.9,0.8-8.3,5-8.9
				c5-0.7,7.9,4.4,8.9,8.3l0,0c2.1-0.5,4.4-0.7,6.2-0.8l0.1,0C298.5,303.1,291.8,286.7,279.4,286.7z M276.7,299.4l-1.6,3.1l-0.6-3.5
				l-3.5-0.5l3.1-1.6l-0.6-3.5l2.5,2.5l3.1-1.6l-1.6,3.1l2.5,2.5L276.7,299.4z"/>
			<path id="XMLID_24_" d="M334.2,286.7c-12.4,0-19.1,16.4-19.5,25.1l0.1,0c1.8,0.2,4.1,0.4,6.2,0.8l0,0c1-3.9,3.9-9.1,8.9-8.3
				c4.3,0.6,6,5,5,8.9c6.1,0.8,11.2-4.1,12.4-9.7C349.2,295.1,343.1,286.7,334.2,286.7z M339.1,299.1l-0.6,3.5l-1.6-3.1l-3.5,0.5
				l2.5-2.5l-1.6-3.1l3.1,1.6l2.5-2.5l-0.6,3.5l3.1,1.6L339.1,299.1z"/>
		</g>
	</g>
</g>
</svg>
