<?xml version="1.0" encoding="utf-8"?>
<!-- Generator: Adobe Illustrator 21.0.0, SVG Export Plug-In . SVG Version: 6.00 Build 0)  -->
<svg version="1.1" xmlns="http://www.w3.org/2000/svg" xmlns:xlink="http://www.w3.org/1999/xlink" x="0px" y="0px"
	 viewBox="0 0 1000 1000" style="enable-background:new 0 0 1000 1000;" xml:space="preserve">
<style type="text/css">
	.st0{display:none;}
	.st1{fill:#D73244;stroke:#A6213F;stroke-width:10;stroke-miterlimit:10;}
	.st2{fill:#F9F9FA;}
	.st3{fill:#201D50;}
	.st4{fill:none;stroke:#201D50;stroke-width:10;stroke-linecap:round;stroke-linejoin:round;stroke-miterlimit:10;}
	.st5{fill:none;stroke:#F9F9FA;stroke-width:5;stroke-miterlimit:10;}
	.st6{fill:#C92128;}
	.st7{stroke:#000000;stroke-width:3;stroke-miterlimit:10;}
	.st8{font-family:'TimesNewRomanPS-BoldMT';}
	.st9{font-size:107.0209px;}
	.st10{stroke:#FFFFFF;stroke-width:0.5518;}
</style>
<g id="Layer_9">
</g>
<g id="Layer_1" class="st0">
</g>
<g id="Layer_3">
</g>
<g id="Layer_4">
</g>
<g id="Layer_2">
</g>
<g id="Layer_5">
</g>
<g id="Layer_6">
</g>
<g id="Layer_7">
</g>
<g id="Layer_8">
	<path class="st1" d="M775.3,814.8h-549c-29.1,0-52.9-23.8-52.9-52.9V213c0-29.1,23.8-52.9,52.9-52.9h549
		c29.1,0,52.9,23.8,52.9,52.9v549C828.1,791,804.4,814.8,775.3,814.8z"/>
	<g>
		<path id="XMLID_9_" class="st2" d="M502.8,665.7c0.6,32.3,10.3,123.1,10.3,123.1s29-36.4,86.7-56.4c19-6.6,46.2-15.4,71.2-28.3
			c8.5-4.4,38.9-28.8,50.5-82c12.5-57.2-58-112-58-112v-15l11.2-1.8c32.3-0.6,123.1-10.3,123.1-10.3s-36.4-29-56.4-86.7
			c-6.6-19-15.4-46.2-28.3-71.2c-4.4-8.5-28.8-38.9-82-50.5c-57.2-12.5-112,58-112,58h-15l-1.8-8.2c-0.6-32.3-10.3-123.1-10.3-123.1
			s-29,36.4-86.7,56.4c-19,6.6-46.2,15.4-71.2,28.3c-8.5,4.4-38.9,28.8-50.5,82c-12.5,57.2,58,112,58,112v15l-10.5,1.8
			c-32.3,0.6-123.1,10.3-123.1,10.3s36.4,29,56.4,86.7c6.6,19,15.4,46.2,28.3,71.2c4.4,8.5,28.8,38.9,82,50.5
			c57.2,12.5,112-58,112-58h15L502.8,665.7z"/>
		<path id="XMLID_12_" class="st3" d="M642.1,460.7c0,0-35.5,0.5-47.2-1.7c-17.1-3.2-40.8-21-46.1-59c-5.3-38-3.4-53.7-3.4-53.7
			l-41.3,25.3L462,346.3c0,0,2,15.7-3.4,53.7c-5.3,38-29,55.7-46.1,59c-11.7,2.2-47.2,1.7-47.2,1.7l24,33l-24,33
			c0,0,35.5-0.5,47.2,1.7c17.1,3.2,40.8,21,46.1,59c5.3,38,3.4,53.7,3.4,53.7l42.2-25.3l41.3,25.3c0,0-2-15.7,3.4-53.7
			c5.3-38,29-55.7,46.1-59c11.7-2.2,47.2-1.7,47.2-1.7l-24-33L642.1,460.7z"/>
		<path id="XMLID_2_" class="st4" d="M341.5,495v-15c0,0-70.5-54.8-58-112c11.6-53.3,42-77.6,50.5-82c25-12.9,52.2-21.7,71.2-28.3
			c57.7-20,86.7-56.4,86.7-56.4s9.7,90.8,10.3,123.1C503.1,373,505,495,505,495H341.5z"/>
		<path id="XMLID_3_" class="st4" d="M663.5,495v15c0,0,70.5,54.8,58,112c-11.6,53.3-42,77.6-50.5,82c-25,12.9-52.2,21.7-71.2,28.3
			c-57.7,20-86.7,56.4-86.7,56.4s-9.7-90.8-10.3-123.1C501.9,617,500,495,500,495H663.5z"/>
		<path id="XMLID_6_" class="st4" d="M501.6,657.5h-15c0,0-54.8,70.5-112,58c-53.3-11.6-77.6-42-82-50.5
			c-12.9-25-21.7-52.2-28.3-71.2c-20-57.7-56.4-86.7-56.4-86.7s90.8-9.7,123.1-10.3c48.6-0.9,170.7-2.8,170.7-2.8V657.5z"/>
		<path id="XMLID_8_" class="st4" d="M504,332.5h15c0,0,54.8-70.5,112-58c53.3,11.6,77.6,42,82,50.5c12.9,25,21.7,52.2,28.3,71.2
			c20,57.7,56.4,86.7,56.4,86.7s-90.8,9.7-123.1,10.3C626,494.1,504,496,504,496V332.5z"/>
		<polyline id="XMLID_10_" class="st5" points="501.7,440.4 508.2,420.2 498.3,420.2 506.9,398.6 		"/>
		<polyline id="XMLID_7_" class="st5" points="554.6,493.5 574.9,500 574.9,490.2 596.5,498.8 		"/>
		<polyline id="XMLID_13_" class="st5" points="447.3,498 427,491.5 427,501.4 405.4,492.8 		"/>
		<circle id="XMLID_11_" class="st2" cx="501.6" cy="493.3" r="47.7"/>
		<circle id="XMLID_14_" class="st6" cx="378.5" cy="369" r="66"/>
		<circle id="XMLID_16_" class="st6" cx="620.6" cy="361" r="66"/>
		<circle id="XMLID_17_" class="st6" cx="634" cy="611.7" r="66"/>
		<circle id="XMLID_18_" class="st6" cx="388" cy="620.3" r="66"/>
		<g id="XMLID_15_">
			<text transform="matrix(1 0 0 1 584.0176 396.898)" class="st7 st8 st9">E</text>
		</g>
		<text id="XMLID_20_" transform="matrix(1 0 0 1 334.0176 402.898)" class="st7 st8 st9">G</text>
		<g id="XMLID_21_">
			<text transform="matrix(1 0 0 1 348.5176 649.6476)" class="st7 st8 st9">A</text>
		</g>
		<g id="XMLID_22_">
			<text transform="matrix(1 0 0 1 584.0177 643.9813)" class="st7 st8 st9">M</text>
		</g>
		<g id="XMLID_23_">
			<path id="XMLID_49_" d="M495.6,502.7c-0.9-12.1-9-19.9-9-29.4c0-5.1,2.8-11.2,8.5-15.3c0.8-0.6,4.5-3.4,6.7-5.8v11.4
				c-0.8,11.4-1.2,27.1-1.1,38.9"/>
			<path id="XMLID_48_" d="M494,511.7c-2.1-0.2-4.1-0.5-5.8-0.8l0,0c-0.9,5.4-5.5,7.7-10,5.5c0.3,3.7,3.3,7,7.1,7
				C490.5,523.4,493.6,515.3,494,511.7L494,511.7"/>
			<path id="XMLID_47_" d="M500.7,512c-1.8,0-3.5-0.1-5.2-0.2l0,0c-0.5,3.5-1.9,7.8-4.8,11.7c2,4.3,6.5,8.5,11,10.4l0-8.6
				C500.8,521.7,500.9,515.1,500.7,512L500.7,512"/>
			<path id="XMLID_46_" d="M507.9,511.8c-1.7,0.1-3.4,0.2-5.2,0.2l0,0c-0.2,3.1-0.1,9.7-1,13.3l0,8.6c4.5-2,9-6.1,11-10.4
				C509.8,519.5,508.4,515.3,507.9,511.8L507.9,511.8"/>
			<path id="XMLID_45_" d="M515.5,510.8c-1.7,0.4-3.7,0.6-5.9,0.8l0,0c0.4,3.7,3.5,11.6,8.7,11.6c3.8,0,6.8-3.4,7.1-7
				C520.9,518.4,516.3,516.2,515.5,510.8L515.5,510.8"/>
			<path id="XMLID_44_" d="M508,502.6C508,502.6,508,502.6,508,502.6"/>
			<path id="XMLID_43_" d="M508,502.6c-1.6-0.1-3.4-0.2-5.2-0.2l0.1,0.1c0.2-11.7-0.3-27.6-1.1-39v-11.4c2.2,2.4,5.9,5.2,6.7,5.8
				c5.7,4.3,8.4,10.2,8.5,15.3C517,482.8,509,491.2,508,502.6"/>
			<path id="XMLID_42_" d="M500.8,502.4C500.8,502.4,500.8,502.4,500.8,502.4"/>
			<path id="XMLID_41_" d="M500.7,502.4c-0.2,0-0.4,0-0.6,0"/>
			<path id="XMLID_37_" d="M500.2,502.4c-1.6,0-3.1,0.1-4.6,0.2"/>
			<line id="XMLID_36_" x1="495.6" y1="502.6" x2="495.6" y2="502.6"/>
			<path id="XMLID_30_" class="st10" d="M501.8,504.1c-9.3,0-16.8,1.4-16.8,3.1c0,1.7,7.5,3.1,16.8,3.1c9.3,0,16.8-1.4,16.8-3.1
				C518.6,505.5,511.1,504.1,501.8,504.1z M501.9,508.6c-8.2,0-14.8-0.9-14.8-1.4c0-0.6,6.6-1.5,14.8-1.5c8.2,0,14.8,0.9,14.8,1.5
				C516.6,507.8,510,508.6,501.9,508.6z"/>
			<path id="XMLID_27_" d="M474.4,477.7c-8.8,0-15,8.4-13.1,16.8c1.2,5.6,6.3,10.5,12.4,9.7c-1-3.9,0.8-8.3,5-8.9
				c5-0.7,7.9,4.4,8.9,8.3l0,0c2.1-0.5,4.4-0.7,6.2-0.8l0.1,0C493.5,494.1,486.8,477.7,474.4,477.7z M471.7,490.4l-1.6,3.1l-0.6-3.5
				l-3.5-0.5l3.1-1.6l-0.6-3.5l2.5,2.5l3.1-1.6l-1.6,3.1l2.5,2.5L471.7,490.4z"/>
			<path id="XMLID_24_" d="M529.2,477.7c-12.4,0-19.1,16.4-19.5,25.1l0.1,0c1.8,0.2,4.1,0.4,6.2,0.8l0,0c1-3.9,3.9-9.1,8.9-8.3
				c4.3,0.6,6,5,5,8.9c6.1,0.8,11.2-4.1,12.4-9.7C544.2,486.1,538.1,477.7,529.2,477.7z M534.1,490.1l-0.6,3.5l-1.6-3.1l-3.5,0.5
				l2.5-2.5l-1.6-3.1l3.1,1.6l2.5-2.5l-0.6,3.5l3.1,1.6L534.1,490.1z"/>
		</g>
	</g>
</g>
</svg>
